# xmcd CD database file generated by OrangeCD 6.4
#
# Track frame offsets:
#	150
#	13479
#	27055
#	40880
#	53517
#	67139
#	81252
#	94809
#	108272
#	119303
#	134176
#	146948
#	156532
#	169534
#	182278
#	194256
#	205974
#	220061
#
# Disc length: 3174 seconds
#
# Revision: 2
# Processed by: cddbd v1.5.2PL0 Copyright (c) Steve Scherf et al.
# Submitted via: OrangeCD 6.4
#
DISCID=0a0c6412
DTITLE=Etta James - The Very Best of Etta James: The Chess Singles
DYEAR=2005
DGENRE=Soul Blues
TTITLE0=All I Could Do Was Cry
TTITLE1=If I Can't Have You
TTITLE2=My Dearest Darling
TTITLE3=Spoonful
TTITLE4=At Last
TTITLE5=I Just Want To Make Love To You
TTITLE6=Trust In Me
TTITLE7=Fool That I Am
TTITLE8=Don't Cry Baby
TTITLE9=A Sunday Kind Of Love
TTITLE10=Something's Got A Hold On Me
TTITLE11=Waiting For Charlie (To Come Home)
TTITLE12=Stop The Wedding
TTITLE13=Next Door To The Blues
TTITLE14=Would It Make Any Difference To You
TTITLE15=In My Diary
TTITLE16=Stormy Weather (Keeps Rainin' All The Time)
TTITLE17=These Foolish Things (Remind Me Of You)
EXTD=
EXTT0=
EXTT1=
EXTT2=
EXTT3=
EXTT4=
EXTT5=
EXTT6=
EXTT7=
EXTT8=
EXTT9=
EXTT10=
EXTT11=
EXTT12=
EXTT13=
EXTT14=
EXTT15=
EXTT16=
EXTT17=
PLAYORDER=
